<svg width="732" height="285" viewBox="0 0 732 285" fill="none" xmlns="http://www.w3.org/2000/svg">
<path d="M106.923 65.1962C134.605 49.214 164.329 43.2818 189.87 46.359C215.41 49.436 236.38 61.4213 247.65 80.9423C258.92 100.463 258.815 124.616 248.71 148.273C238.604 171.931 218.605 194.706 190.923 210.688C163.241 226.671 133.517 232.603 107.976 229.526C82.4366 226.449 61.4666 214.463 50.1962 194.942C38.9257 175.421 39.0311 151.268 49.136 127.612C59.2418 103.954 79.2411 81.1783 106.923 65.1962Z" fill="#B71C1C" stroke="#212121" stroke-width="12"/>
<path d="M316.653 100.866V132.732H328.896C340.077 132.732 345.668 127.253 345.668 116.296C345.668 111.488 344.214 107.742 341.307 105.059C338.4 102.264 334.431 100.866 329.399 100.866H316.653ZM349.022 192.942L324.536 153.697H316.653V192.942H290.825V79.9014H329.903C342.537 79.9014 352.656 83.2557 360.259 89.9644C367.974 96.6731 371.832 105.394 371.832 116.128C371.832 132.229 364.955 143.354 351.203 149.504L379.882 192.942H349.022ZM426.886 149.001H454.056L452.882 144.975C449.639 134.018 446.956 124.682 444.832 116.967C442.819 109.252 441.589 104.276 441.142 102.04L440.471 98.6857C439.576 104.835 435.439 120.265 428.06 144.975L426.886 149.001ZM467.138 192.942L460.261 169.797H420.68L413.804 192.942H386.802L424.538 79.9014H457.075L494.811 192.942H467.138ZM503.772 189.756V166.946C507.909 169.518 512.214 170.804 516.686 170.804C524.625 170.804 528.594 166.555 528.594 158.057V80.0691H554.422V158.728C554.422 169.574 551.515 178.016 545.701 184.053C539.999 190.091 532.004 193.11 521.718 193.11C514.003 193.11 508.021 191.992 503.772 189.756ZM608.36 149.001H635.53L634.356 144.975C631.114 134.018 628.43 124.682 626.306 116.967C624.293 109.252 623.063 104.276 622.616 102.04L621.945 98.6857C621.051 104.835 616.914 120.265 609.534 144.975L608.36 149.001ZM648.612 192.942L641.736 169.797H602.155L595.278 192.942H568.276L606.012 79.9014H638.549L676.285 192.942H648.612ZM692.794 192.942V79.9014H718.622V192.942H692.794Z" fill="black"/>
</svg>
